<svg width="27" height="26" viewBox="0 0 27 26" fill="none" xmlns="http://www.w3.org/2000/svg">
<circle cx="13.2" cy="13" r="12.75" stroke="white" stroke-width="0.5"/>
<path d="M13.1064 8.94939C10.9201 8.94939 9.15653 10.7113 9.15653 12.8957C9.15653 15.0801 10.9201 16.842 13.1064 16.842C15.2928 16.842 17.0563 15.0801 17.0563 12.8957C17.0563 10.7113 15.2928 8.94939 13.1064 8.94939ZM13.1064 15.4613C11.6935 15.4613 10.5385 14.3107 10.5385 12.8957C10.5385 11.4807 11.6901 10.3301 13.1064 10.3301C14.5227 10.3301 15.6743 11.4807 15.6743 12.8957C15.6743 14.3107 14.5193 15.4613 13.1064 15.4613ZM18.1392 8.78797C18.1392 9.29972 17.7266 9.70843 17.2179 9.70843C16.7056 9.70843 16.2966 9.29628 16.2966 8.78797C16.2966 8.27965 16.7091 7.8675 17.2179 7.8675C17.7266 7.8675 18.1392 8.27965 18.1392 8.78797ZM20.7552 9.72217C20.6968 8.48916 20.4149 7.39697 19.5108 6.49711C18.6101 5.59726 17.5169 5.31562 16.2828 5.2538C15.0109 5.18168 11.1985 5.18168 9.92657 5.2538C8.69589 5.31219 7.60271 5.59382 6.6986 6.49368C5.7945 7.39354 5.51605 8.48573 5.45417 9.71874C5.38198 10.9895 5.38198 14.7985 5.45417 16.0692C5.51261 17.3023 5.7945 18.3944 6.6986 19.2943C7.60271 20.1942 8.69245 20.4758 9.92657 20.5376C11.1985 20.6097 15.0109 20.6097 16.2828 20.5376C17.5169 20.4792 18.6101 20.1976 19.5108 19.2943C20.4114 18.3944 20.6933 17.3023 20.7552 16.0692C20.8274 14.7985 20.8274 10.993 20.7552 9.72217ZM19.112 17.4328C18.8439 18.1059 18.3248 18.6246 17.6476 18.8959C16.6335 19.2977 14.2271 19.205 13.1064 19.205C11.9857 19.205 9.57593 19.2943 8.56525 18.8959C7.89147 18.628 7.37238 18.1094 7.10081 17.4328C6.6986 16.4196 6.79142 14.0154 6.79142 12.8957C6.79142 11.776 6.70204 9.36841 7.10081 8.35865C7.36895 7.68547 7.88803 7.16685 8.56525 6.89552C9.57937 6.49368 11.9857 6.58641 13.1064 6.58641C14.2271 6.58641 16.6369 6.49711 17.6476 6.89552C18.3213 7.16342 18.8404 7.68204 19.112 8.35865C19.5142 9.37184 19.4214 11.776 19.4214 12.8957C19.4214 14.0154 19.5142 16.423 19.112 17.4328Z" fill="white"/>
</svg>
